<svg width="36" height="36" viewBox="0 0 36 36" fill="none" xmlns="http://www.w3.org/2000/svg">
<path d="M17.9455 0C8.05575 0 0 8.07605 0 18C0 22.8422 1.86825 27.3764 5.26194 30.7643C8.6385 34.135 13.1463 36 17.9455 36C22.7618 36 27.2867 34.135 30.6633 30.7643C34.0398 27.3764 35.8909 22.8593 35.8909 18C35.8909 13.192 34.0398 8.67491 30.6633 5.26996C27.2696 1.88213 22.7618 0 17.9455 0ZM8.65564 27.3764C6.4446 25.1521 5.12483 22.2776 4.85059 19.1635C11.1409 16.7338 15.1345 15.8612 17.9969 16.2548C18.5454 16.3403 18.8367 16.4259 18.991 16.4943C18.991 16.8536 18.8539 17.5722 18.7682 18.0684C18.4254 19.8308 17.9626 22.2433 19.2481 24.673C20.2593 26.5894 22.1276 28.0608 24.9728 29.1901C22.8989 30.5076 20.4822 31.2091 17.9283 31.2091C14.4318 31.2091 11.1409 29.8403 8.65564 27.3764ZM28.8464 25.4259C25.9498 24.6217 24.0987 23.5779 23.4816 22.4144C22.9846 21.4905 23.2245 20.2757 23.4816 18.9753C23.7902 17.384 24.1672 15.3992 22.9674 13.7053C22.1276 12.5247 20.7221 11.8061 18.6825 11.5152C15.3402 11.0361 11.3637 11.7205 5.48476 13.8251C7.21589 8.58935 12.1522 4.79087 17.9455 4.79087C21.4763 4.79087 24.7843 6.1597 27.2524 8.65779C29.7206 11.1388 31.0917 14.4753 31.0917 18C31.0917 20.7034 30.3033 23.27 28.8464 25.4259Z" fill="#122087"/>
</svg>
